<?xml version="1.0" encoding="iso-8859-1"?>
<!-- Generator: Adobe Illustrator 18.0.0, SVG Export Plug-In . SVG Version: 6.00 Build 0)  -->
<!DOCTYPE svg PUBLIC "-//W3C//DTD SVG 1.1//EN" "http://www.w3.org/Graphics/SVG/1.1/DTD/svg11.dtd">
<svg version="1.1" id="Capa_1" xmlns="http://www.w3.org/2000/svg" xmlns:xlink="http://www.w3.org/1999/xlink" x="0px" y="0px"
	 viewBox="0 0 297.5 297.5" style="enable-background:new 0 0 297.5 297.5;" xml:space="preserve">
<g>
	<g id="XMLID_20_">
		<g>
			<path style="fill:#DEC978;" d="M229.7,141.04c0,5.26-0.83,10.32-2.34,15.08c-5.55,0.43-10.98,1.62-16.16,3.55
				c-5.32-13.44-14.12-25.45-25.48-34.59c-12.35-9.93-27.37-16.12-43.06-17.9c9.16-9.99,22.32-16.26,36.91-16.26
				C207.22,90.92,229.7,113.4,229.7,141.04z"/>
			<path style="fill:#06A3B6;" d="M231.89,175.54c21.78,0,39.5,17.72,39.5,39.49c0,21.78-17.72,39.5-39.5,39.5H59.35
				c-21.78,0-39.49-17.72-39.49-39.5c0-21.77,17.71-39.49,39.49-39.49c1.01,0,2.11,0.05,3.35,0.15c4.46,0.37,8.59-2.31,10.06-6.52
				c9-25.68,33.33-42.93,60.54-42.93c29.97,0,55.65,20.37,62.45,49.52c0.72,3.11,2.91,5.66,5.86,6.86c2.95,1.2,6.3,0.89,8.98-0.84
				C216.95,177.7,224.32,175.54,231.89,175.54z"/>
			<path d="M287.45,131.24c5.41,0,9.8,4.39,9.8,9.8c0,5.42-4.39,9.81-9.8,9.81H248.6c-0.35,2.41-0.8,4.78-1.39,7.11
				c25.18,6.77,43.78,29.78,43.78,57.07c0,32.59-26.51,59.1-59.1,59.1H59.35c-32.59,0-59.1-26.51-59.1-59.1
				c0-31.78,25.22-57.78,56.69-59.05c8.07-17.9,22.07-32.1,39.15-40.59c-2.01-2.68-2.59-6.32-1.21-9.63c2.08-5,7.82-7.37,12.82-5.28
				l11.95,4.98c1.29-2.17,2.69-4.26,4.2-6.27L96.36,71.7c-3.82-3.83-3.82-10.04,0-13.87c3.83-3.82,10.04-3.82,13.87,0l27.48,27.49
				c2.09-1.57,4.26-3.03,6.52-4.36L139.31,69c-2.06-5.01,0.32-10.74,5.33-12.8c5.01-2.06,10.74,0.33,12.8,5.34l4.91,11.93
				c2.42-0.62,4.9-1.1,7.42-1.46V33.17c0-5.41,4.39-9.8,9.8-9.8c5.42,0,9.81,4.39,9.81,9.8v38.84c2.61,0.37,5.19,0.88,7.7,1.53
				l4.97-11.91c2.08-5,7.82-7.36,12.81-5.28c5,2.08,7.36,7.82,5.28,12.82l-4.97,11.94c2.16,1.29,4.26,2.69,6.27,4.21l27.48-27.49
				c3.83-3.82,10.04-3.82,13.87,0c3.82,3.83,3.82,10.04,0,13.87L235.3,99.18c1.57,2.08,3.02,4.27,4.35,6.52l11.97-4.92
				c5.01-2.06,10.74,0.32,12.8,5.33c2.06,5.01-0.33,10.73-5.34,12.8l-11.93,4.91c0.62,2.42,1.1,4.9,1.45,7.42H287.45z
				 M271.39,215.03c0-21.77-17.72-39.49-39.5-39.49c-7.57,0-14.94,2.16-21.3,6.24c-2.68,1.73-6.03,2.04-8.98,0.84
				c-2.95-1.2-5.14-3.75-5.86-6.86c-6.8-29.15-32.48-49.52-62.45-49.52c-27.21,0-51.54,17.25-60.54,42.93
				c-1.47,4.21-5.6,6.89-10.06,6.52c-1.24-0.1-2.34-0.15-3.35-0.15c-21.78,0-39.49,17.72-39.49,39.49c0,21.78,17.71,39.5,39.49,39.5
				h172.54C253.67,254.53,271.39,236.81,271.39,215.03z M227.36,156.12c1.51-4.76,2.34-9.82,2.34-15.08
				c0-27.64-22.48-50.12-50.13-50.12c-14.59,0-27.75,6.27-36.91,16.26c15.69,1.78,30.71,7.97,43.06,17.9
				c11.36,9.14,20.16,21.15,25.48,34.59C216.38,157.74,221.81,156.55,227.36,156.12z"/>
			<path d="M285.08,95.79c2.07,5-0.32,10.73-5.32,12.79l-0.56,0.23c-1.22,0.51-2.49,0.75-3.73,0.75c-3.85,0-7.51-2.29-9.07-6.07
				c-2.06-5.01,0.32-10.74,5.33-12.8l0.55-0.23C277.29,88.4,283.02,90.78,285.08,95.79z"/>
			<path d="M224.83,35.53c5,2.06,7.39,7.79,5.33,12.8l-0.23,0.56c-1.56,3.78-5.21,6.07-9.07,6.07c-1.24,0-2.5-0.24-3.72-0.74
				c-5.01-2.06-7.4-7.79-5.34-12.8l0.23-0.56C214.09,35.86,219.83,33.47,224.83,35.53z"/>
			<path d="M147.35,41.42c2.06,5.01-0.33,10.74-5.34,12.8c-1.22,0.5-2.48,0.74-3.72,0.74c-3.86,0-7.51-2.29-9.07-6.07l-0.23-0.56
				c-2.06-5.01,0.33-10.74,5.33-12.8c5.01-2.06,10.74,0.33,12.8,5.33L147.35,41.42z"/>
			<path d="M87.41,90.69c5.01,2.05,7.4,7.78,5.34,12.79c-1.56,3.79-5.21,6.08-9.07,6.08c-1.24,0-2.5-0.24-3.72-0.74l-0.56-0.23
				c-5.01-2.06-7.4-7.79-5.34-12.79c2.06-5.01,7.78-7.4,12.79-5.34L87.41,90.69z"/>
		</g>
		<g>
		</g>
	</g>
</g>
<g>
</g>
<g>
</g>
<g>
</g>
<g>
</g>
<g>
</g>
<g>
</g>
<g>
</g>
<g>
</g>
<g>
</g>
<g>
</g>
<g>
</g>
<g>
</g>
<g>
</g>
<g>
</g>
<g>
</g>
</svg>
